<?xml version="1.0" encoding="utf-8"?>
<svg version="1.1" id="Laag_1" xmlns="http://www.w3.org/2000/svg" x="0px" y="0px"
	 width="500px" height="260px" viewBox="250 280 500 200" xml:space="preserve">
<g>
	<path fill="#F7BE29" d="M734.716,470.483c0,9.081-5.17,16.441-11.551,16.441H322.793c-6.38,0-11.551-7.36-11.551-16.441V322.512
		c0-9.08,5.171-16.441,11.551-16.441h400.372c6.381,0,11.551,7.361,11.551,16.441V470.483z"/>
	<path fill="#8B4936" d="M723.165,488.925H322.793c-7.472,0-13.551-8.273-13.551-18.441V322.512
		c0-10.168,6.079-18.441,13.551-18.441h400.372c7.472,0,13.551,8.272,13.551,18.441v147.972
		C736.716,480.652,730.637,488.925,723.165,488.925z M322.793,308.071c-5.177,0-9.551,6.613-9.551,14.441v147.972
		c0,7.828,4.374,14.441,9.551,14.441h400.372c5.177,0,9.551-6.613,9.551-14.441V322.512c0-7.828-4.374-14.441-9.551-14.441H322.793z
		"/>
</g>
<path fill-rule="evenodd" clip-rule="evenodd" fill="#8B4936" d="M396.683,463.448c10.057-4.438,9.837-30.636,9.971-39.696
	c0.89-19.097-3.328-37.321-3.913-56.629c-0.911-16.684,7.249-29.938,21.207-37.557c8.092-4.719,24.113-8.841,32.431-3.383
	c-28.995,11.883-40.857,26.742-34.12,60.815c8.307,37.5-15.974,67.675-44.35,86.587"/>
<path fill="#8B4936" d="M287.732,349.158l-21.792-4.018l7.733,33.324C273.673,378.464,301.43,366.572,287.732,349.158z"/>
<path fill="#8B4936" d="M396.788,372.985l2.459-33.626l-21.528,6.983C377.719,346.342,384.314,362.955,396.788,372.985z"/>
<path fill="#F8CC88" stroke="#8B4936" stroke-width="2" stroke-miterlimit="10" d="M306.929,305.651l4.826,0.199
	c0,0,4.457,1.785,5.013-0.992l13.736-0.991c0,0,6.685,11.101,5.756-0.199l9.839-2.576l62.557,87.415c0,0,22.926,32.411,8.911,66.402
	c0,0-11.323,24.182-34.898,32.709c0,0-12.383,2.456-28.681,6.438c-10.088,2.47-25.256,2.646-45.201,0.694
	c0,0-21.915,1.517-42.681-20.248c0,0-17.464-22.17-13.751-61.22c0,0,2.042-15.46,15.408-34.094c0,0,8.909-12.686,18.563-25.37
	C286.324,353.819,298.946,333.402,306.929,305.651z"/>
<path fill="#8B4936" d="M283.787,281.244c0,0,5.02-8.613,5.982-8.613c0.961,0,14.422,11.794,15.171,12.986
	c0.747,1.194-12.822-18.155-12.822-18.155s4.486-10.469,14.851-9.277c0,0,11.536,19.747,13.353,30.481
	c0,0,0.428-15.373-7.905-35.121c0,0,13.353-8.481,24.144,1.46l-1.602,33.265c0,0,3.525-11.532,5.769-26.773
	c0,0,9.081-1.988,14.102,6.229c0,0-3.954,11.529-3.847,13.386c0,0,3.525-2.517,6.838-7.556c0,0,5.875,9.675,5.77,12.459
	c0,0-9.188,10.204-10.257,11.925c0,0-5.052,7.215,8.166,24.67l-19.062-8.633l0.107-11.663l-4.808,12.323l-15.17,0.929
	c0,0-2.208,11.192-3.917,11.06c0,0-3.667-14.374-2.92-11.854l-17.689,16.728C298.04,331.502,305.58,300.858,283.787,281.244z"/>
<g>
	<path fill-rule="evenodd" clip-rule="evenodd" fill="#8B4936" d="M366.549,357.548c-0.116-7.284-3.187-12.711-6.61-17.873
		c-3.271-4.934-7.022-8.903-10.871-12.634c-1.103-1.066-2.225-2.073-3.263-3.354c1.681,1.517,3.386,2.967,5.037,4.561
		c4.447,4.288,8.723,8.932,12.192,15.096c2.047,3.639,3.509,7.578,3.603,12.075C366.651,356.139,366.581,356.84,366.549,357.548z"/>
	<path fill-rule="evenodd" clip-rule="evenodd" fill="#8B4936" d="M338.12,327.314c0.529,0.529,1.064,1.04,1.587,1.589
		c4.93,5.209,9.414,11.103,12.708,18.759c1.781,4.136,2.905,8.492,3.122,13.095C353.039,346.184,346.1,336.246,338.12,327.314z"/>
	<path fill-rule="evenodd" clip-rule="evenodd" fill="#8B4936" d="M337.325,369.344c0.833-5.995,0.066-12.274-1.021-18.49
		c-1.165-6.645-2.706-13.244-4.089-19.86c-0.158-0.757-0.355-1.505-0.436-2.285c1.567,6.564,3.216,13.107,4.669,19.699
		c1.093,4.947,1.814,9.968,1.73,14.917c-0.035,2.117-0.329,4.162-0.505,6.238C337.56,369.492,337.443,369.419,337.325,369.344z"/>
	<path fill-rule="evenodd" clip-rule="evenodd" fill="#8B4936" d="M300.782,355.807c7.391-5.837,10.342-16.173,11.44-28.644
		C313.464,337.439,306.313,355.311,300.782,355.807z"/>
	<path fill-rule="evenodd" clip-rule="evenodd" fill="#8B4936" d="M318.925,327.98c0.42,2.807,0.986,5.87,1.31,8.922
		c0.654,6.226,1.29,12.463,1.7,18.671c0.166,2.479-0.22,4.915-0.487,7.306c-0.116,1.02-0.579,1.869-0.985,2.704
		c1.364-4.671,1-9.962,0.605-15.156C320.495,342.879,319.637,335.304,318.925,327.98z"/>
</g>
<path fill-rule="evenodd" clip-rule="evenodd" fill="#FFFFFF" d="M283.994,395.624c0,0-0.087,0.068-0.09,0.068
	C283.899,395.692,283.994,395.624,283.994,395.624z"/>
<polygon fill-rule="evenodd" clip-rule="evenodd" fill="#FFFFFF" points="270.507,353.603 271.856,358.151 276.822,350.712
	268.813,349.504 "/>
<polygon fill-rule="evenodd" clip-rule="evenodd" fill="#FFFFFF" points="392.029,350.019 394.915,354.229 396.189,344.781
	389.028,346.394 "/>
<g>
	<path fill="#F7BE29" d="M333.65,382.51c-7.571-2.482-14.995-4.486-22.962-4.884c-3.388-0.17-6.772-0.286-10.12-0.894
		c-4.173-0.75-7.898-2.775-11.426-5.17c-2.064-1.402-4.909-2.943-6.395-5.095c-0.495-0.717,0.892-0.031,0.828-0.062
		c1.178,0.554,2.316,1.281,3.398,2.018c-2.436-1.656-1.041-0.617-0.25-0.319c0.776,0.298,1.58,0.502,2.38,0.705
		c1.439,0.364,2.916,0.552,4.386,0.718c2.914,0.326,5.854,0.358,8.779,0.532c7.3,0.439,14.215,2.517,21.149,4.792
		c2.477,0.813,4.823,2.728,6.904,4.287c1.055,0.787,2.126,1.603,3.065,2.546C333.265,381.559,334.502,382.789,333.65,382.51
		L333.65,382.51z"/>
</g>
<g>
	<path fill="#F7BE29" d="M346.635,383.091c5.041-3.754,10.195-7.034,16.604-8.897c2.726-0.791,5.475-1.533,7.947-2.728
		c3.087-1.488,5.165-4.094,6.894-7.008c1.012-1.711,2.604-3.693,2.759-5.999c0.054-0.77-0.752,0.139-0.714,0.098
		c-0.703,0.744-1.284,1.639-1.814,2.536c1.195-2.016,0.555-0.775,0.05-0.345c-0.496,0.424-1.06,0.767-1.623,1.107
		c-1.012,0.607-2.143,1.065-3.28,1.493c-2.253,0.852-4.675,1.432-7.013,2.145c-5.836,1.774-10.533,5.025-15.148,8.463
		c-1.65,1.228-2.639,3.474-3.588,5.332c-0.479,0.942-0.961,1.907-1.27,2.973C346.478,382.122,346.067,383.515,346.635,383.091
		L346.635,383.091z"/>
</g>
<path fill-rule="evenodd" clip-rule="evenodd" fill="#F7BE29" d="M341.617,402.06c-1.685,8.237-14.134,12.329-27.81,9.146
	c-13.675-3.187-23.396-12.449-21.712-20.688c1.684-8.237,14.134-12.329,27.81-9.143C333.58,384.562,343.301,393.822,341.617,402.06z
	"/>
<path fill-rule="evenodd" clip-rule="evenodd" fill="#FFFFFF" d="M299.614,392.271c1.312-6.418,11.119-9.581,21.902-7.069
	c10.786,2.519,18.464,9.754,17.153,16.171c-1.312,6.418-11.117,9.585-21.903,7.069C305.983,405.929,298.303,398.688,299.614,392.271
	z"/>
<path fill-rule="evenodd" clip-rule="evenodd" fill="#F7BE29" d="M343.142,399.039c1.686,8.238,14.135,12.329,27.81,9.144
	c13.675-3.188,23.396-12.449,21.712-20.686c-1.683-8.235-14.134-12.331-27.81-9.145C351.18,381.54,341.459,390.8,343.142,399.039z"
	/>
<path fill-rule="evenodd" clip-rule="evenodd" fill="#FFFFFF" d="M385.146,389.25c-1.312-6.418-11.12-9.584-21.903-7.071
	c-10.784,2.515-18.463,9.755-17.152,16.171c1.313,6.419,11.117,9.581,21.903,7.07C378.776,402.908,386.457,395.667,385.146,389.25z"
	/>
<path fill="#8B4936" d="M358.141,419.103c0.214,2.586-5.782,4.849-13.396,5.056c-7.615,0.204-13.96-1.727-14.174-4.31
	c-0.217-2.585,5.782-4.848,13.396-5.054C351.579,414.595,357.924,416.518,358.141,419.103z"/>
<polygon fill-rule="evenodd" clip-rule="evenodd" fill="#8B4936" points="346.042,436.655 356.494,421.717 332.22,421.717 "/>
<g>
	<g>
		<path fill-rule="evenodd" clip-rule="evenodd" fill="#FFFFFF" d="M351.853,433.319"/>
		<g>
			<path fill="#FFFFFF" d="M351.853,434.079c1.001,0,1.001-1.518,0-1.518S350.852,434.079,351.853,434.079L351.853,434.079z"/>
		</g>
	</g>
	<g>
		<path fill-rule="evenodd" clip-rule="evenodd" fill="#FFFFFF" d="M355.579,431.019"/>
		<g>
			<path fill="#FFFFFF" d="M355.579,431.78c1.002,0,1.002-1.521,0-1.521C354.578,430.26,354.578,431.78,355.579,431.78
				L355.579,431.78z"/>
		</g>
	</g>
	<g>
		<path fill-rule="evenodd" clip-rule="evenodd" fill="#FFFFFF" d="M358.911,435.623"/>
		<g>
			<path fill="#FFFFFF" d="M358.911,436.383c1.003,0,1.003-1.521,0-1.521C357.91,434.862,357.91,436.383,358.911,436.383
				L358.911,436.383z"/>
		</g>
	</g>
	<g>
		<path fill-rule="evenodd" clip-rule="evenodd" fill="#FFFFFF" d="M353.617,438.975"/>
		<g>
			<path fill="#FFFFFF" d="M353.617,439.734c1.002,0,1.002-1.521,0-1.521C352.616,438.214,352.616,439.734,353.617,439.734
				L353.617,439.734z"/>
		</g>
	</g>
	<g>
		<path fill-rule="evenodd" clip-rule="evenodd" fill="#FFFFFF" d="M354.207,435.203"/>
		<g>
			<path fill="#FFFFFF" d="M354.207,435.965c1,0,1-1.52,0-1.52C353.204,434.445,353.204,435.965,354.207,435.965L354.207,435.965z"
				/>
		</g>
	</g>
	<g>
		<path fill-rule="evenodd" clip-rule="evenodd" fill="#FFFFFF" d="M358.52,442.532c0,0,0,0.212,0.196,0.212"/>
		<g>
			<path fill="#FFFFFF" d="M357.744,442.532c0.021,0.57,0.417,0.905,0.973,0.974c0.422,0.052,0.777-0.386,0.777-0.762
				c0-0.454-0.357-0.708-0.777-0.757c-0.019-0.006-0.039-0.009-0.059-0.013c0.132,0.036,0.262,0.072,0.393,0.104
				c0.167,0.072,0.243,0.321,0.247,0.453c-0.016-0.412-0.341-0.76-0.777-0.76C358.109,441.772,357.728,442.12,357.744,442.532
				L357.744,442.532z"/>
		</g>
	</g>
	<g>
		<path fill-rule="evenodd" clip-rule="evenodd" fill="#FFFFFF" d="M364.208,431.438"/>
		<g>
			<path fill="#FFFFFF" d="M364.208,432.196c1,0,1-1.519,0-1.519C363.206,430.678,363.206,432.196,364.208,432.196L364.208,432.196z
				"/>
		</g>
	</g>
	<g>
		<path fill-rule="evenodd" clip-rule="evenodd" fill="#FFFFFF" d="M359.107,430.81"/>
		<g>
			<path fill="#FFFFFF" d="M359.107,431.567c1.002,0,1.002-1.521,0-1.521C358.106,430.047,358.106,431.567,359.107,431.567
				L359.107,431.567z"/>
		</g>
	</g>
	<g>
		<path fill-rule="evenodd" clip-rule="evenodd" fill="#FFFFFF" d="M356.363,439.184"/>
		<g>
			<path fill="#FFFFFF" d="M356.363,439.945c1.002,0,1.002-1.521,0-1.521C355.363,438.425,355.363,439.945,356.363,439.945
				L356.363,439.945z"/>
		</g>
	</g>
	<g>
		<path fill-rule="evenodd" clip-rule="evenodd" fill="#FFFFFF" d="M363.225,434.576"/>
		<g>
			<path fill="#FFFFFF" d="M363.225,435.339c1.002,0,1.002-1.521,0-1.521C362.224,433.818,362.224,435.339,363.225,435.339
				L363.225,435.339z"/>
		</g>
	</g>
	<g>
		<path fill-rule="evenodd" clip-rule="evenodd" fill="#FFFFFF" d="M360.481,432.273"/>
		<g>
			<path fill="#FFFFFF" d="M360.481,433.033c1.002,0,1.002-1.521,0-1.521S359.479,433.033,360.481,433.033L360.481,433.033z"/>
		</g>
	</g>
	<g>
		<path fill-rule="evenodd" clip-rule="evenodd" fill="#FFFFFF" d="M362.246,445.884"/>
		<g>
			<path fill="#FFFFFF" d="M362.246,446.642c1.001,0,1.001-1.518,0-1.518C361.243,445.124,361.243,446.642,362.246,446.642
				L362.246,446.642z"/>
		</g>
	</g>
	<g>
		<path fill-rule="evenodd" clip-rule="evenodd" fill="#FFFFFF" d="M360.089,438.35"/>
		<g>
			<path fill="#FFFFFF" d="M360.089,439.106c1.002,0,1.002-1.521,0-1.521C359.086,437.586,359.086,439.106,360.089,439.106
				L360.089,439.106z"/>
		</g>
	</g>
</g>
<ellipse fill-rule="evenodd" clip-rule="evenodd" fill="#F7BE29" cx="294.412" cy="426.714" rx="23.637" ry="18.351"/>
<g>
	<g>
		<path fill="#FFFFFF" d="M336.209,435.37c1.057,0,1.057-1.602,0-1.602C335.152,433.769,335.152,435.37,336.209,435.37
			L336.209,435.37z"/>
	</g>
	<g>
		<path fill="#FFFFFF" d="M334.761,432.5c1.057,0,1.057-1.603,0-1.603C333.704,430.897,333.704,432.5,334.761,432.5L334.761,432.5z"
			/>
	</g>
	<g>
		<path fill="#FFFFFF" d="M322.142,436.036c1.058,0,1.058-1.607,0-1.607C321.085,434.429,321.085,436.036,322.142,436.036
			L322.142,436.036z"/>
	</g>
	<g>
		<path fill="#FFFFFF" d="M328.969,432.72c1.057,0,1.057-1.604,0-1.604C327.912,431.115,327.912,432.72,328.969,432.72
			L328.969,432.72z"/>
	</g>
	<g>
		<path fill="#FFFFFF" d="M326.28,440.011c1.057,0,1.057-1.604,0-1.604C325.223,438.407,325.223,440.011,326.28,440.011
			L326.28,440.011z"/>
	</g>
	<g>
		<path fill="#FFFFFF" d="M329.176,443.542c1.057,0,1.057-1.604,0-1.604C328.118,441.938,328.118,443.542,329.176,443.542
			L329.176,443.542z"/>
	</g>
	<g>
		<path fill="#FFFFFF" d="M334.142,441.337c1.055,0,1.055-1.606,0-1.606C333.083,439.73,333.083,441.337,334.142,441.337
			L334.142,441.337z"/>
	</g>
	<g>
		<path fill="#FFFFFF" d="M330.209,439.787c1.057,0,1.057-1.603,0-1.603C329.154,438.185,329.154,439.787,330.209,439.787
			L330.209,439.787z"/>
	</g>
	<g>
		<path fill="#FFFFFF" d="M331.244,436.036c1.056,0,1.056-1.607,0-1.607C330.188,434.429,330.188,436.036,331.244,436.036
			L331.244,436.036z"/>
	</g>
	<g>
		<path fill="#FFFFFF" d="M334.142,436.036c1.055,0,1.055-1.607,0-1.607C333.083,434.429,333.083,436.036,334.142,436.036
			L334.142,436.036z"/>
	</g>
	<g>
		<path fill="#FFFFFF" d="M324.417,445.53c1.059,0,1.059-1.603,0-1.603C323.362,443.928,323.362,445.53,324.417,445.53
			L324.417,445.53z"/>
	</g>
	<g>
		<path fill="#FFFFFF" d="M327.522,435.593c1.056,0,1.056-1.602,0-1.602C326.464,433.991,326.464,435.593,327.522,435.593
			L327.522,435.593z"/>
	</g>
	<g>
		<path fill="#FFFFFF" d="M323.385,434.708c1.055,0,1.055-1.604,0-1.604C322.328,433.104,322.328,434.708,323.385,434.708
			L323.385,434.708z"/>
	</g>
</g>
<path fill-rule="evenodd" clip-rule="evenodd" fill="#F7BE29" d="M413.563,425.315c0,8.853-9.382,16.035-20.955,16.035
	c-11.574,0-20.956-7.183-20.956-16.035c0-8.857,9.381-16.04,20.956-16.04C404.181,409.275,413.563,416.458,413.563,425.315z"/>
<g>
	<path fill="#8B4936" d="M355.494,419.572c9.578-6.645,22.491-6.643,33.596-8.969c0.213-0.043-0.17-2.721,0-2.757
		c-11.105,2.326-24.018,2.325-33.596,8.97C355.038,417.135,355.923,419.276,355.494,419.572L355.494,419.572z"/>
</g>
<g>
	<path fill="#8B4936" d="M355.058,420.854c11.809,0.305,23.131,4.011,34.904,4.698c-0.034-0.001,0.077-2.753,0-2.756
		c-11.773-0.689-23.096-4.396-34.904-4.699C355.061,418.097,355.011,420.852,355.058,420.854L355.058,420.854z"/>
</g>
<g>
	<path fill="#8B4936" d="M352.875,424.698c15.083,2.9,27.608,12.816,40.142,20.925c-0.417-0.268,0.447-2.467,0-2.755
		c-12.534-8.11-25.059-18.027-40.142-20.925C353.033,421.973,352.678,424.662,352.875,424.698L352.875,424.698z"/>
</g>
<g>
	<path fill="#8B4936" d="M336.732,420.232c-13.639-6.898-29.697-5.633-44.502-4.271c-0.109,0.007,0.066,2.75,0,2.759
		c14.805-1.364,30.863-2.63,44.502,4.269C336.367,422.804,337.132,420.435,336.732,420.232L336.732,420.232z"/>
</g>
<g>
	<path fill="#8B4936" d="M337.606,421.085c-12.544-6.626-33.863-4.886-43.193,6.406c-0.468,0.567,0.449,2.215,0,2.76
		c9.33-11.294,30.648-13.035,43.193-6.408C337.23,423.646,338.014,421.301,337.606,421.085L337.606,421.085z"/>
</g>
<g>
	<path fill="#8B4936" d="M334.116,420.659c-11.344-1.419-22.493,2.779-30.104,11.105c-0.475,0.521,0.457,2.258,0,2.757
		c7.611-8.326,18.76-12.524,30.104-11.105C334.019,423.404,334.254,420.675,334.116,420.659L334.116,420.659z"/>
</g>
<g>
	<path fill="#8B4936" d="M320.735,455.792c7.143,9.487,15.156,0.529,19.169-5.9c1.552-2.486,2.673-5.129,3.765-7.754
		c0.546-1.387,1.037-2.782,1.476-4.191c0.16,1.337,0.368,2.671,0.625,3.998c0.683,3.895,2.024,7.738,4.398,11.213
		c8.135,11.905,23.183-0.458,27.678-7.729c1.044-1.688-1.021-4.531,0-6.184c-4.565,7.384-17.629,18.612-26.953,8.638
		c-2.748-2.939-3.819-6.826-4.731-10.311c-0.418-1.598-0.066-8.678-1.716-3.698c-0.908,2.736-2.176,5.39-3.514,8.009
		c-3.425,6.723-12.481,17.973-20.197,7.727C321.872,451.117,319.567,454.242,320.735,455.792L320.735,455.792z"/>
</g>
<g>
	<path d="M473.715,379.965v5.654h-9.145v-70.684h9.145v28.362c4.417-4.565,9.557-6.848,15.417-6.848
		c6.951,0,12.878,2.459,17.782,7.378c4.903,4.918,7.355,10.853,7.355,17.803c0,6.951-2.452,12.885-7.355,17.804
		c-4.904,4.919-10.831,7.377-17.782,7.377C483.271,386.812,478.132,384.53,473.715,379.965z M473.715,358.097v7.113
		c0.559,2.769,1.973,5.287,4.241,7.554c3.092,3.063,6.818,4.595,11.177,4.595c4.358,0,8.077-1.531,11.155-4.595
		c3.077-3.063,4.617-6.774,4.617-11.133c0-4.329-1.54-8.04-4.617-11.133c-3.078-3.092-6.796-4.639-11.155-4.639
		c-4.359,0-8.084,1.546-11.177,4.639C475.688,352.767,474.274,355.299,473.715,358.097z"/>
	<path d="M565.824,343.341v-3.181h9.189v45.502h-9.189v-5.698c-4.418,4.565-9.542,6.847-15.374,6.847
		c-6.951,0-12.878-2.451-17.782-7.355c-4.903-4.903-7.355-10.83-7.355-17.781s2.452-12.878,7.355-17.782
		c4.904-4.903,10.831-7.355,17.782-7.355C556.282,336.538,561.406,338.807,565.824,343.341z M565.824,365.033v-6.715
		c-0.53-2.856-1.944-5.448-4.241-7.775c-3.092-3.063-6.803-4.595-11.132-4.595c-4.359,0-8.078,1.532-11.155,4.595
		c-3.078,3.063-4.617,6.774-4.617,11.133c0,4.329,1.539,8.033,4.617,11.11c3.077,3.078,6.795,4.617,11.155,4.617
		c4.329,0,8.04-1.531,11.132-4.595C563.88,370.481,565.294,367.89,565.824,365.033z"/>
	<path d="M610.797,336.45c6.95,0,12.877,2.459,17.781,7.378c4.903,4.918,7.355,10.853,7.355,17.803
		c0,6.951-2.452,12.885-7.355,17.804c-4.904,4.919-10.831,7.377-17.781,7.377c-6.922,0-12.842-2.458-17.76-7.377
		c-4.919-4.918-7.377-10.853-7.377-17.804c0-6.95,2.458-12.885,7.377-17.803C597.956,338.909,603.875,336.45,610.797,336.45z
		 M599.642,350.498c-3.078,3.093-4.617,6.804-4.617,11.133c0,4.359,1.539,8.07,4.617,11.133c3.077,3.063,6.796,4.595,11.155,4.595
		c4.357,0,8.076-1.531,11.154-4.595c3.077-3.063,4.616-6.774,4.616-11.133c0-4.329-1.539-8.04-4.616-11.133
		c-3.078-3.092-6.797-4.639-11.154-4.639C606.438,345.859,602.719,347.406,599.642,350.498z"/>
	<path d="M667.211,349.306h-18.688v-9.145h34.459l-20.72,36.27h20.277v9.188h-36.004L667.211,349.306z"/>
	<path d="M706.087,323.329c1.266,1.237,1.899,2.754,1.899,4.55c0,1.797-0.634,3.313-1.899,4.55
		c-1.267,1.237-2.783,1.855-4.551,1.855c-1.738,0-3.24-0.619-4.506-1.855c-1.267-1.237-1.899-2.753-1.899-4.55
		c0-1.796,0.633-3.313,1.899-4.55c1.266-1.237,2.768-1.855,4.506-1.855C703.304,321.474,704.821,322.092,706.087,323.329z
		 M706.131,340.161v45.458h-9.145v-45.458H706.131z"/>
</g>
<g>
	<path fill="#FFFFFF" d="M476.27,447.115c1.262,1.229,2.764,1.843,4.505,1.843c1.74,0,3.233-0.614,4.479-1.843
		c1.246-1.229,1.869-2.747,1.869-4.556c0-1.741-0.614-3.226-1.843-4.454c-0.854-0.853-2.68-2.167-5.478-3.941
		c-3.823-2.081-6.536-3.925-8.14-5.529c-2.799-2.798-4.198-6.159-4.198-10.084c0-3.959,1.399-7.347,4.198-10.162
		c2.798-2.815,6.177-4.223,10.136-4.223c3.958,0,7.251,1.33,9.88,3.992c1.876,1.878,3.071,3.977,3.583,6.297l-10.29,2.969
		c-0.239-0.853-0.479-1.415-0.717-1.688c-0.614-0.615-1.434-0.922-2.457-0.922c-1.024,0-1.903,0.367-2.637,1.101
		c-0.734,0.734-1.101,1.612-1.101,2.637c0,1.023,0.358,1.894,1.075,2.61c0.648,0.614,2.116,1.656,4.402,3.123
		c4.231,2.321,7.303,4.437,9.215,6.348c3.31,3.345,4.965,7.32,4.965,11.928c0,4.709-1.647,8.728-4.94,12.056
		c-3.294,3.327-7.295,4.991-12.004,4.991c-4.676,0-8.669-1.672-11.979-5.018c-2.287-2.285-3.788-5.136-4.505-8.549l10.545-2.252
		C475.144,445.358,475.621,446.468,476.27,447.115z"/>
	<path fill="#FFFFFF" d="M534.014,442.815v-37.063h10.597v36.192c0,1.877,0.631,3.438,1.894,4.684
		c1.262,1.246,2.764,1.868,4.505,1.868c4.198,0,6.296-2.61,6.296-7.832v-34.912h10.648v36.909
		c-0.171,4.505-1.826,8.327-4.966,11.467c-3.311,3.345-7.303,5.017-11.979,5.017c-4.71,0-8.583-1.639-11.621-4.914
		c-3.106,3.275-6.997,4.914-11.672,4.914c-4.709,0-8.72-1.672-12.03-5.017c-3.141-3.14-4.778-6.962-4.915-11.467v-36.909h10.597
		v34.912c0,5.222,2.116,7.832,6.348,7.832c1.741,0,3.242-0.614,4.505-1.843C533.28,445.598,533.877,444.317,534.014,442.815z"/>
	<path fill="#FFFFFF" d="M627.491,409.438v-3.686h10.646v52.727h-10.646v-6.604c-5.119,5.291-11.059,7.935-17.814,7.935
		c-8.056,0-14.923-2.841-20.605-8.523c-5.682-5.682-8.523-12.55-8.523-20.604c0-8.054,2.841-14.922,8.523-20.604
		s12.55-8.523,20.605-8.523C616.432,401.555,622.372,404.184,627.491,409.438z M627.491,434.573v-7.781
		c-0.615-3.31-2.254-6.313-4.914-9.01c-3.584-3.549-7.885-5.323-12.9-5.323c-5.053,0-9.361,1.774-12.927,5.323
		c-3.566,3.55-5.35,7.851-5.35,12.9c0,5.017,1.783,9.31,5.35,12.875c3.566,3.566,7.874,5.35,12.927,5.35
		c5.016,0,9.316-1.774,12.9-5.324C625.237,440.888,626.875,437.884,627.491,434.573z"/>
	<path fill="#FFFFFF" d="M665.167,451.876v24.265h-10.597v-70.388h10.597v4.761c5.119-6.007,11.074-9.01,17.866-9.01
		c8.054,0,14.922,2.841,20.604,8.523c5.682,5.682,8.523,12.551,8.523,20.604c0,8.055-2.842,14.931-8.523,20.63
		c-5.683,5.7-12.551,8.549-20.604,8.549C676.242,459.811,670.287,457.167,665.167,451.876z M665.167,426.536v8.242
		c0.647,3.242,2.304,6.178,4.966,8.805c3.549,3.55,7.849,5.324,12.9,5.324c5.05,0,9.359-1.783,12.926-5.35
		c3.565-3.565,5.35-7.875,5.35-12.926c0-5.017-1.784-9.317-5.35-12.9c-3.566-3.584-7.876-5.375-12.926-5.375
		c-5.052,0-9.352,1.791-12.9,5.375C667.471,420.359,665.815,423.295,665.167,426.536z"/>
</g>
<path fill="#FFFFFF" d="M444.668,329.154c0,0-20.506-1.403-28.556,15.699C408.061,361.954,427.547,327.037,444.668,329.154z"/>
<ellipse fill-rule="evenodd" clip-rule="evenodd" fill="#8B4936" cx="325.859" cy="398.583" rx="9.758" ry="10.353"/>
<path fill-rule="evenodd" clip-rule="evenodd" fill="#8B4936" d="M365.516,396.287c0,5.289-4.039,9.574-9.021,9.574
	c-4.984,0-9.023-4.285-9.023-9.574c0-5.283,4.039-9.568,9.023-9.568C361.477,386.719,365.516,391.004,365.516,396.287z"/>
<ellipse fill-rule="evenodd" clip-rule="evenodd" fill="#FFFFFF" cx="326.272" cy="396.822" rx="2.904" ry="3.082"/>
<ellipse fill-rule="evenodd" clip-rule="evenodd" fill="#FFFFFF" cx="354.858" cy="396.822" rx="2.904" ry="3.082"/>
<path opacity="0.1" fill-rule="evenodd" clip-rule="evenodd" fill="#8B4936" d="M257.167,454.217c0,0,80.506,50.156,162.889-10.289
	c0,0-5.266,31.97-37.448,42.867c0,0-38.376,12.247-60.465,8.662c0,0-36.121,1.725-52.797-19.012
	C269.345,476.445,263.383,475.165,257.167,454.217z"/>
</svg>
