<svg width="24" height="24" viewBox="0 0 24 24" fill="none" xmlns="http://www.w3.org/2000/svg">
  <path d="M5.12869 4.17611H0.705876C0.315983 4.17611 0 3.85991 0 3.47023C0 3.08055 0.315983 2.76436 0.705876 2.76436H5.12869C5.51859 2.76436 5.83457 3.08055 5.83457 3.47023C5.83457 3.85991 5.51859 4.17611 5.12869 4.17611Z" fill="#E5AC4B"/>
  <path d="M7.65624 6.70331C5.87336 6.70331 4.42297 5.25291 4.42297 3.47019C4.42297 1.6871 5.87336 0.23671 7.65624 0.23671C9.43912 0.23671 10.8895 1.6871 10.8895 3.47019C10.8895 5.25297 9.43912 6.70331 7.65624 6.70331ZM7.65624 1.64852C6.65184 1.64852 5.83473 2.46578 5.83473 3.47019C5.83473 4.4746 6.65184 5.2915 7.65624 5.2915C8.66065 5.2915 9.47776 4.4746 9.47776 3.47019C9.47776 2.46578 8.66065 1.64852 7.65624 1.64852Z" fill="#E5AC4B"/>
  <path d="M23.2939 4.17611H12.7439C12.354 4.17611 12.038 3.85991 12.038 3.47023C12.038 3.08055 12.354 2.76436 12.7439 2.76436H23.2939C23.6838 2.76436 23.9997 3.08055 23.9997 3.47023C23.9997 3.85991 23.6838 4.17611 23.2939 4.17611Z" fill="#E5AC4B"/>
  <path d="M17.134 15.2331C15.351 15.2331 13.9007 13.7827 13.9007 12C13.9007 10.2173 15.3511 8.76688 17.134 8.76688C18.9168 8.76688 20.3672 10.2173 20.3672 12C20.3672 13.7827 18.9169 15.2331 17.134 15.2331ZM17.134 10.1787C16.1296 10.1787 15.3125 10.9956 15.3125 12C15.3125 13.0044 16.1296 13.8213 17.134 13.8213C18.1384 13.8213 18.9555 13.0044 18.9555 12C18.9555 10.9956 18.1384 10.1787 17.134 10.1787Z" fill="#E5AC4B"/>
  <path d="M12.0458 12.7059H0.705876C0.315983 12.7059 0 12.3897 0 12C0 11.6103 0.315983 11.2941 0.705876 11.2941H12.0458C12.4357 11.2941 12.7517 11.6103 12.7517 12C12.7517 12.3897 12.4357 12.7059 12.0458 12.7059Z" fill="#E5AC4B"/>
  <path d="M23.2943 12.7059H19.6612C19.2713 12.7059 18.9553 12.3897 18.9553 12C18.9553 11.6103 19.2713 11.2941 19.6612 11.2941H23.2943C23.6842 11.2941 24.0002 11.6103 24.0002 12C24.0002 12.3897 23.6842 12.7059 23.2943 12.7059Z" fill="#E5AC4B"/>
  <path d="M6.86626 23.7632C5.08338 23.7632 3.633 22.3128 3.633 20.5298C3.633 18.747 5.08338 17.2966 6.86626 17.2966C8.64914 17.2966 10.0995 18.747 10.0995 20.5298C10.0995 22.3128 8.64914 23.7632 6.86626 23.7632ZM6.86626 18.7085C5.86185 18.7085 5.04475 19.5253 5.04475 20.5298C5.04475 21.5342 5.86185 22.3514 6.86626 22.3514C7.87067 22.3514 8.68777 21.5342 8.68777 20.5298C8.68777 19.5253 7.87067 18.7085 6.86626 18.7085Z" fill="#E5AC4B"/>
  <path d="M23.2943 21.2357H11.9543C11.5645 21.2357 11.2485 20.9195 11.2485 20.5298C11.2485 20.1401 11.5645 19.8239 11.9543 19.8239H23.2943C23.6842 19.8239 24.0001 20.1401 24.0001 20.5298C24.0001 20.9195 23.6842 21.2357 23.2943 21.2357Z" fill="#E5AC4B"/>
  <path d="M4.33897 21.2357H0.705876C0.315983 21.2357 0 20.9195 0 20.5298C0 20.1401 0.315983 19.8239 0.705876 19.8239H4.33897C4.72887 19.8239 5.04485 20.1401 5.04485 20.5298C5.04485 20.9195 4.72887 21.2357 4.33897 21.2357Z" fill="#E5AC4B"/>
</svg>
