<svg width="36" height="36" viewBox="0 0 36 36" fill="none" xmlns="http://www.w3.org/2000/svg">
<circle cx="18" cy="18" r="18" fill="#63482A"/>
<path d="M25 12.0073C24.3471 12.4967 23.6242 12.871 22.8591 13.1158C22.4485 12.6141 21.9027 12.2585 21.2957 12.0971C20.6887 11.9357 20.0497 11.9763 19.4651 12.2134C18.8805 12.4505 18.3785 12.8726 18.027 13.4227C17.6756 13.9728 17.4916 14.6244 17.5 15.2892V16.0137C16.3018 16.0467 15.1145 15.7643 14.0439 15.1917C12.9732 14.6191 12.0525 13.774 11.3636 12.7318C11.3636 12.7318 8.63636 19.2522 14.7727 22.1501C13.3685 23.1629 11.6958 23.6708 10 23.5991C16.1364 27.2216 23.6364 23.5991 23.6364 15.2675C23.6357 15.0657 23.6175 14.8644 23.5818 14.6662C24.2777 13.937 24.7687 13.0163 25 12.0073Z" fill="#FAF9F5"/>
</svg>
